<svg width="55" height="13" viewBox="0 0 55 13" fill="none" xmlns="http://www.w3.org/2000/svg">
<path d="M2.868 6.64C2.868 7.048 2.98 7.38 3.204 7.636C3.436 7.884 3.72 8.008 4.056 8.008C4.512 8.008 4.92 7.792 5.28 7.36C5.416 6.648 5.592 5.524 5.808 3.988C4.912 3.988 4.196 4.248 3.66 4.768C3.132 5.288 2.868 5.912 2.868 6.64ZM6.048 11.188C5.672 11.692 5.2 12.088 4.632 12.376C4.064 12.672 3.464 12.82 2.832 12.82C2.208 12.82 1.704 12.7 1.32 12.46C0.944 12.228 0.756 11.912 0.756 11.512C0.756 11.112 0.92 10.692 1.248 10.252C1.616 10.796 2.168 11.068 2.904 11.068C3.384 11.068 3.828 10.86 4.236 10.444C4.652 10.036 4.928 9.436 5.064 8.644L4.944 8.584C4.376 9.416 3.648 9.832 2.76 9.832C2.088 9.832 1.56 9.572 1.176 9.052C0.792 8.532 0.6 7.84 0.6 6.976C0.6 6.144 0.828 5.384 1.284 4.696C1.804 3.904 2.528 3.356 3.456 3.052C3.968 2.884 4.456 2.8 4.92 2.8C5.384 2.8 5.776 2.832 6.096 2.896C6.144 3.112 6.172 3.308 6.18 3.484C6.556 3.228 6.936 3.1 7.32 3.1C7.872 3.1 8.148 3.384 8.148 3.952C8.148 4.52 8.112 5.104 8.04 5.704C7.968 6.296 7.856 6.932 7.704 7.612C7.552 8.292 7.332 8.936 7.044 9.544C6.764 10.144 6.432 10.692 6.048 11.188ZM15.1982 3.712C15.6462 3.712 16.0302 3.892 16.3502 4.252C16.6782 4.612 16.8422 5.136 16.8422 5.824C16.8422 6.504 16.7222 7.136 16.4822 7.72C16.2422 8.296 15.9262 8.768 15.5342 9.136C15.1422 9.504 14.6982 9.792 14.2022 10C13.7062 10.2 13.1982 10.3 12.6782 10.3C11.6302 10.3 10.8022 10.012 10.1942 9.436C9.58619 8.86 9.28219 8.096 9.28219 7.144C9.28219 5.856 9.69419 4.812 10.5182 4.012C11.3502 3.204 12.4062 2.8 13.6862 2.8C13.9742 2.8 14.2622 2.832 14.5502 2.896C14.6382 3.16 14.6862 3.46 14.6942 3.796C14.8622 3.74 15.0302 3.712 15.1982 3.712ZM13.7222 5.38C13.7222 5.156 13.7742 4.904 13.8782 4.624C13.9902 4.344 14.1662 4.12 14.4062 3.952C13.3502 4.176 12.6222 4.604 12.2222 5.236C11.8782 5.78 11.7062 6.34 11.7062 6.916C11.7062 7.492 11.8222 7.956 12.0542 8.308C12.2942 8.652 12.5982 8.824 12.9662 8.824C13.7822 8.824 14.3582 8.292 14.6942 7.228C14.0462 6.828 13.7222 6.212 13.7222 5.38ZM23.7763 3.712C24.2243 3.712 24.6083 3.892 24.9283 4.252C25.2563 4.612 25.4203 5.136 25.4203 5.824C25.4203 6.504 25.3003 7.136 25.0603 7.72C24.8203 8.296 24.5043 8.768 24.1123 9.136C23.7203 9.504 23.2763 9.792 22.7803 10C22.2843 10.2 21.7763 10.3 21.2563 10.3C20.2083 10.3 19.3803 10.012 18.7723 9.436C18.1643 8.86 17.8603 8.096 17.8603 7.144C17.8603 5.856 18.2723 4.812 19.0963 4.012C19.9283 3.204 20.9843 2.8 22.2643 2.8C22.5523 2.8 22.8403 2.832 23.1283 2.896C23.2163 3.16 23.2643 3.46 23.2723 3.796C23.4403 3.74 23.6083 3.712 23.7763 3.712ZM22.3003 5.38C22.3003 5.156 22.3523 4.904 22.4563 4.624C22.5683 4.344 22.7443 4.12 22.9843 3.952C21.9283 4.176 21.2003 4.604 20.8003 5.236C20.4563 5.78 20.2843 6.34 20.2843 6.916C20.2843 7.492 20.4003 7.956 20.6323 8.308C20.8723 8.652 21.1763 8.824 21.5443 8.824C22.3603 8.824 22.9363 8.292 23.2723 7.228C22.6243 6.828 22.3003 6.212 22.3003 5.38ZM31.0824 9.124L30.9624 9.064C30.3384 9.888 29.5944 10.3 28.7304 10.3C28.0904 10.3 27.5464 10.048 27.0984 9.544C26.6584 9.032 26.4384 8.344 26.4384 7.48C26.4384 6.408 26.8144 5.432 27.5664 4.552C27.9344 4.12 28.4264 3.772 29.0424 3.508C29.6584 3.236 30.3464 3.1 31.1064 3.1C31.2504 3.1 31.5064 3.116 31.8744 3.148C31.8904 2.98 31.9264 2.776 31.9824 2.536L31.3104 1.576C32.3104 0.992 33.0984 0.7 33.6744 0.7C34.0024 0.7 34.2344 0.768 34.3704 0.904C34.5064 1.032 34.5744 1.28 34.5744 1.648C34.5744 2.008 34.3944 3.032 34.0344 4.72C33.6824 6.408 33.5064 7.608 33.5064 8.32C33.5064 9.024 33.6304 9.488 33.8784 9.712C33.4304 10.104 32.9624 10.3 32.4744 10.3C31.9944 10.3 31.6424 10.18 31.4184 9.94C31.1944 9.692 31.0824 9.42 31.0824 9.124ZM28.6944 7.024C28.6944 7.48 28.8104 7.84 29.0424 8.104C29.2824 8.368 29.5784 8.5 29.9304 8.5C30.3864 8.5 30.8024 8.284 31.1784 7.852C31.3064 6.428 31.4864 5.196 31.7184 4.156C30.7984 4.156 30.0624 4.452 29.5104 5.044C28.9664 5.636 28.6944 6.296 28.6944 7.024ZM35.679 5.668C35.623 5.444 35.595 5.236 35.595 5.044C35.595 4.652 35.711 4.356 35.943 4.156C36.175 3.956 36.475 3.856 36.843 3.856C36.843 3.44 36.735 2.988 36.519 2.5C36.911 2.212 37.267 1.996 37.587 1.852C37.915 1.7 38.259 1.624 38.619 1.624C38.979 1.624 39.227 1.692 39.363 1.828C39.507 1.956 39.579 2.156 39.579 2.428C39.579 2.7 39.523 3.124 39.411 3.7C39.731 3.652 40.055 3.584 40.383 3.496C40.439 3.664 40.467 3.88 40.467 4.144C40.467 4.408 40.363 4.656 40.155 4.888C39.955 5.112 39.659 5.224 39.267 5.224H39.087C38.799 6.528 38.655 7.532 38.655 8.236C38.655 8.94 38.779 9.432 39.027 9.712C38.579 10.104 38.103 10.3 37.599 10.3C37.095 10.3 36.731 10.152 36.507 9.856C36.291 9.552 36.183 9.084 36.183 8.452C36.183 8.068 36.323 7.06 36.603 5.428C36.283 5.484 35.975 5.564 35.679 5.668ZM47.038 3.712C47.486 3.712 47.87 3.892 48.19 4.252C48.518 4.612 48.682 5.136 48.682 5.824C48.682 6.504 48.562 7.136 48.322 7.72C48.082 8.296 47.766 8.768 47.374 9.136C46.982 9.504 46.538 9.792 46.042 10C45.546 10.2 45.038 10.3 44.518 10.3C43.47 10.3 42.642 10.012 42.034 9.436C41.426 8.86 41.122 8.096 41.122 7.144C41.122 5.856 41.534 4.812 42.358 4.012C43.19 3.204 44.246 2.8 45.526 2.8C45.814 2.8 46.102 2.832 46.39 2.896C46.478 3.16 46.526 3.46 46.534 3.796C46.702 3.74 46.87 3.712 47.038 3.712ZM45.562 5.38C45.562 5.156 45.614 4.904 45.718 4.624C45.83 4.344 46.006 4.12 46.246 3.952C45.19 4.176 44.462 4.604 44.062 5.236C43.718 5.78 43.546 6.34 43.546 6.916C43.546 7.492 43.662 7.956 43.894 8.308C44.134 8.652 44.438 8.824 44.806 8.824C45.622 8.824 46.198 8.292 46.534 7.228C45.886 6.828 45.562 6.212 45.562 5.38ZM49.9642 5.668C49.9082 5.444 49.8802 5.236 49.8802 5.044C49.8802 4.652 49.9962 4.356 50.2282 4.156C50.4602 3.956 50.7602 3.856 51.1282 3.856C51.1282 3.44 51.0202 2.988 50.8042 2.5C51.1962 2.212 51.5522 1.996 51.8722 1.852C52.2002 1.7 52.5442 1.624 52.9042 1.624C53.2642 1.624 53.5122 1.692 53.6482 1.828C53.7922 1.956 53.8642 2.156 53.8642 2.428C53.8642 2.7 53.8082 3.124 53.6962 3.7C54.0162 3.652 54.3402 3.584 54.6682 3.496C54.7242 3.664 54.7522 3.88 54.7522 4.144C54.7522 4.408 54.6482 4.656 54.4402 4.888C54.2402 5.112 53.9442 5.224 53.5522 5.224H53.3722C53.0842 6.528 52.9402 7.532 52.9402 8.236C52.9402 8.94 53.0642 9.432 53.3122 9.712C52.8642 10.104 52.3882 10.3 51.8842 10.3C51.3802 10.3 51.0162 10.152 50.7922 9.856C50.5762 9.552 50.4682 9.084 50.4682 8.452C50.4682 8.068 50.6082 7.06 50.8882 5.428C50.5682 5.484 50.2602 5.564 49.9642 5.668Z" fill="#FAF8EB"/>
</svg>
