<svg width="173" height="141" viewBox="0 0 173 141" fill="none" xmlns="http://www.w3.org/2000/svg">
<path d="M27.5 140.25C22.9 140.25 18.7 139.6 14.9 138.3C11.1 137 8.05 135.1 5.75 132.6C3.55 130.1 2.45 127.1 2.45 123.6C2.45 121.4 2.9 119 3.8 116.4C4.8 113.8 6.4 111.05 8.6 108.15C10.9 111.45 13.7 113.95 17 115.65C20.4 117.45 24.5 118.35 29.3 118.35C32.9 118.35 36.55 117.3 40.25 115.2C43.95 113.1 47.25 109.8 50.15 105.3C53.05 100.9 55.1 95.15 56.3 88.05L54.8 87.3C51.1 92.8 46.8 96.8 41.9 99.3C37 101.7 32.2 102.9 27.5 102.9C21.9 102.9 17.05 101.4 12.95 98.4C8.95 95.4 5.85 91.25 3.65 85.95C1.55 80.55 0.5 74.3 0.5 67.2C0.5 61.3 1.6 55.3 3.8 49.2C6 43 9.4 37.35 14 32.25C18.6 27.05 24.45 22.9 31.55 19.8C38.75 16.6 47.35 15 57.35 15C59.35 15 61.25 15.1 63.05 15.3C64.95 15.4 67 15.7 69.2 16.2C69.4 17.2 69.6 18.35 69.8 19.65C70 20.85 70.15 22.15 70.25 23.55C72.65 21.85 75.05 20.65 77.45 19.95C79.95 19.15 82.3 18.75 84.5 18.75C88.2 18.75 90.85 19.7 92.45 21.6C94.05 23.4 94.85 26.2 94.85 30C94.85 36.2 94.4 43.2 93.5 51C92.6 58.8 91.15 66.85 89.15 75.15C87.15 83.45 84.45 91.45 81.05 99.15C77.75 106.85 73.6 113.8 68.6 120C63.7 126.2 57.85 131.1 51.05 134.7C44.25 138.4 36.4 140.25 27.5 140.25ZM43.7 80.1C46.2 80.1 48.8 79.45 51.5 78.15C54.2 76.85 56.7 74.8 59 72C60.2 65.5 61.35 58.55 62.45 51.15C63.55 43.75 64.6 36.65 65.6 29.85C57.9 29.85 51.3 31.4 45.8 34.5C40.3 37.6 36.1 41.7 33.2 46.8C30.3 51.8 28.85 57.2 28.85 63C28.85 68.2 30.3 72.35 33.2 75.45C36.2 78.55 39.7 80.1 43.7 80.1ZM136.327 108.75C129.927 108.75 125.377 106.85 122.677 103.05C119.977 99.25 118.627 93.45 118.627 85.65C118.627 83.45 118.877 80.35 119.377 76.35C119.877 72.25 120.527 67.7 121.327 62.7C122.227 57.7 123.077 52.75 123.877 47.85C121.777 48.25 119.727 48.7 117.727 49.2C115.827 49.7 114.027 50.25 112.327 50.85C111.927 49.35 111.627 47.85 111.427 46.35C111.327 44.85 111.277 43.75 111.277 43.05C111.277 37.85 112.777 34.1 115.777 31.8C118.877 29.4 122.577 28.2 126.877 28.2C126.877 25.9 126.577 23.35 125.977 20.55C125.377 17.75 124.327 14.65 122.827 11.25C127.027 8.15 131.227 5.55 135.427 3.44999C139.627 1.35 144.277 0.299998 149.377 0.299998C153.777 0.299998 156.827 1.15 158.527 2.84999C160.227 4.45 161.077 7.15 161.077 10.95C161.077 12.85 160.877 15.1 160.477 17.7C160.077 20.3 159.577 23.15 158.977 26.25C161.177 25.95 163.277 25.6 165.277 25.2C167.277 24.7 169.227 24.2 171.127 23.7C171.527 24.8 171.777 25.95 171.877 27.15C172.077 28.25 172.177 29.35 172.177 30.45C172.177 34.45 170.927 37.95 168.427 40.95C166.027 43.85 162.277 45.3 157.177 45.3H154.927C153.527 51.7 152.277 58.25 151.177 64.95C150.077 71.65 149.527 77.9 149.527 83.7C149.527 87.6 149.877 91.1 150.577 94.2C151.377 97.2 152.577 99.6 154.177 101.4C148.577 106.3 142.627 108.75 136.327 108.75Z" fill="#FAF8EB"/>
</svg>
